#N canvas -9 0 682 931 12;
#N canvas 0 50 450 250 (subpatch) 0;
#X array \$0-steps 16 float 3;
#A 0 0 2 3 4 5 6 0 1 2 3 4 5 6 0 1 2;
#X coords 0 6 16 0 200 140 1 0 0;
#X restore 400 90 graph;
#X text 380 271 0=k \, 1=s \, 2=h \, 3=ks \, 4=kh \, 5=sh \, 6=ksh
;
#X obj 379 352 array set \$0-steps;
#X msg 379 318 0 2 3 4 5 6 0 1 2 3 4 5 6 0 1 2;
#N canvas 284 173 521 474 counter 0;
#X obj 114 53 inlet;
#X obj 191 54 inlet;
#X obj 114 98 tgl 15 0 empty empty empty 17 7 0 10 #fcfcfc #000000
#000000 0 1;
#X obj 114 118 t f b;
#X obj 114 163 metro 0.25 120 permin;
#X obj 112 229 f;
#X obj 175 230 + 1;
#X obj 113 273 % 16;
#X obj 111 319 outlet;
#X msg 160 190 0, f 5;
#X floatatom 196 98 5 0 0 0 - - - 0;
#X text 237 99 BPM;
#X msg 176 129 tempo \$1 permin;
#X connect 0 0 2 0;
#X connect 1 0 10 0;
#X connect 2 0 3 0;
#X connect 3 0 4 0;
#X connect 3 1 9 0;
#X connect 4 0 5 0;
#X connect 5 0 6 0;
#X connect 5 0 7 0;
#X connect 6 0 5 1;
#X connect 7 0 8 0;
#X connect 9 0 5 1;
#X connect 10 0 12 0;
#X connect 12 0 4 0;
#X restore 91 125 pd counter;
#X connect 3 0 2 0;
