#N canvas -9 0 956 931 12;
#N canvas 0 50 450 250 (subpatch) 0;
#X array \$0-steps 16 float 3;
#A 0 4 2 2 2 5 2 2 2 4 2 2 2 5 2 4 2;
#X coords 0 6 16 0 200 140 1 0 0;
#X restore 519 70 graph;
#X text 518 233 0=k \, 1=s \, 2=h \, 3=ks \, 4=kh \, 5=sh \, 6=ksh
;
#X obj 519 306 array set \$0-steps;
#X msg 519 272 0 2 3 4 5 6 0 1 2 3 4 5 6 0 1 2;
#N canvas 284 173 521 474 counter 0;
#X obj 114 53 inlet;
#X obj 191 54 inlet;
#X obj 114 98 tgl 15 0 empty empty empty 17 7 0 10 #fcfcfc #000000
#000000 0 1;
#X obj 114 118 t f b;
#X obj 114 163 metro 0.25 120 permin;
#X obj 112 229 f;
#X obj 175 230 + 1;
#X obj 113 273 % 16;
#X obj 111 319 outlet;
#X msg 160 190 0, f 5;
#X floatatom 196 98 5 0 0 0 - - - 0;
#X text 237 99 BPM;
#X msg 176 129 tempo \$1 permin;
#X text 206 190 Reset;
#X connect 0 0 2 0;
#X connect 1 0 10 0;
#X connect 2 0 3 0;
#X connect 3 0 4 0;
#X connect 3 1 9 0;
#X connect 4 0 5 0;
#X connect 5 0 6 0;
#X connect 5 0 7 0;
#X connect 6 0 5 1;
#X connect 7 0 8 0;
#X connect 9 0 5 1;
#X connect 10 0 12 0;
#X connect 12 0 4 0;
#X restore 99 100 pd counter;
#X obj 99 62 tgl 15 0 empty empty empty 17 7 0 10 #fcfcfc #000000 #000000
0 1;
#X floatatom 197 58 5 0 0 0 - - - 0;
#X text 235 59 BPM;
#X obj 99 134 hradio 15 1 0 16 empty empty empty 0 -8 0 10 #ed7a12
#000000 #000000 0;
#X obj 99 179 array get \$0-steps;
#X msg 160 154 1;
#X floatatom 99 212 5 0 0 0 - - - 0;
#X obj 99 244 + 0.5;
#X obj 112 280 int;
#X floatatom 100 316 5 0 0 0 - - - 0;
#X obj 161 334 select 0 1 2 3 4 5 6;
#N canvas 872 117 450 526 kick 0;
#X obj 79 30 inlet;
#X obj 174 34 inlet;
#X obj 79 86 bng 15 250 50 0 empty empty empty 17 7 0 10 #fcfcfc #000000
#000000;
#X obj 156 101 f;
#X msg 92 149 150 \, 50 70 0;
#X obj 93 185 vline~;
#X obj 93 227 osc~;
#X obj 98 260 *~;
#X obj 97 294 outlet~;
#X msg 171 180 \$1 1 0 \, 0 100 1;
#X obj 172 223 vline~;
#X text 258 120 Kick;
#X text 107 354 Kasra Yaraei_ MIDI_ 01.02.26;
#X connect 0 0 2 0;
#X connect 1 0 3 1;
#X connect 2 0 3 0;
#X connect 2 0 4 0;
#X connect 3 0 9 0;
#X connect 4 0 5 0;
#X connect 5 0 6 0;
#X connect 6 0 7 0;
#X connect 7 0 8 0;
#X connect 9 0 10 0;
#X connect 10 0 7 1;
#X restore 65 443 pd kick;
#N canvas 190 190 450 434 snare 0;
#X obj 45 39 noise~;
#X obj 50 76 lop~ 3000;
#X obj 52 111 hip~ 1000;
#X text 293 188 Snare;
#X obj 188 31 inlet;
#X obj 253 24 inlet;
#X obj 216 90 f;
#X msg 192 131 \$1 1 0 \, 0 150 1;
#X obj 199 168 vline~;
#X obj 192 207 *~;
#X obj 79 154 osc~ 180;
#X obj 74 193 *~ 0.5;
#X obj 52 233 *~;
#X obj 55 273 outlet~;
#X text 103 314 Kasra Yaraei_ MIDI_ 01.02.26;
#X connect 0 0 1 0;
#X connect 1 0 2 0;
#X connect 2 0 12 0;
#X connect 4 0 6 0;
#X connect 5 0 6 0;
#X connect 6 0 7 0;
#X connect 7 0 8 0;
#X connect 8 0 9 0;
#X connect 8 0 9 1;
#X connect 9 0 12 1;
#X connect 10 0 11 0;
#X connect 11 0 12 0;
#X connect 12 0 13 0;
#X restore 168 427 pd snare;
#N canvas 162 119 450 444 hats 0;
#X obj 42 103 noise~;
#X obj 44 148 hip~ 20000;
#X obj 44 172 hip~ 10000;
#X obj 43 213 *~;
#X obj 43 237 outlet~;
#X obj 157 27 inlet;
#X obj 234 29 inlet;
#X obj 162 75 bng 15 250 50 0 empty empty empty 17 7 0 10 #fcfcfc #000000
#000000;
#X obj 175 109 f;
#X obj 247 141 t f b;
#X obj 290 184 random 10;
#X obj 290 208 / 20;
#X obj 290 232 + 0.7;
#X obj 251 277 *;
#X msg 130 148 \$1 \, 0 40 1;
#X obj 128 173 vline~;
#X text 124 265 Hats;
#X text 107 354 Kasra Yaraei_ MIDI_ 01.02.26;
#X connect 0 0 1 0;
#X connect 1 0 2 0;
#X connect 2 0 3 0;
#X connect 3 0 4 0;
#X connect 5 0 7 0;
#X connect 6 0 8 1;
#X connect 7 0 8 0;
#X connect 8 0 9 0;
#X connect 9 0 13 0;
#X connect 9 1 10 0;
#X connect 10 0 11 0;
#X connect 11 0 12 0;
#X connect 12 0 13 0;
#X connect 13 0 14 0;
#X connect 14 0 15 0;
#X connect 15 0 3 1;
#X restore 301 451 pd hats;
#X floatatom 128 470 5 0 0 0 - - - 0;
#X floatatom 233 471 5 0 0 0 - - - 0;
#X floatatom 364 470 5 0 0 0 - - - 0;
#X obj 166 603 dac~;
#X obj 169 566 +~;
#X text 419 272 Custom Preset;
#X msg 519 345 4 2 4 2 5 2 4 5 2 5 4 5 5 4 2 5;
#X text 473 344 Funky;
#X msg 566 374 0 2 2 10 3 10 2 2 0 2 2 10 3 10 2 10;
#X text 522 377 House;
#X text 580 403 Rock;
#X msg 615 402 4 2 2 2 5 2 2 2 4 2 2 2 5 2 4 2;
#X obj 501 446 array set \$0-steps;
#X obj 264 676 writesf~ 2;
#X msg 293 563 open kasrayaraei_test.wav;
#X msg 366 594 start;
#X msg 397 625 stop;
#X text 512 520 >> Kasra Yaraei_ MIDI_ 01.02.26 <<;
#X text 827 374 10 = Rest;
#X connect 3 0 2 0;
#X connect 4 0 8 0;
#X connect 5 0 4 0;
#X connect 6 0 4 1;
#X connect 8 0 9 0;
#X connect 9 0 11 0;
#X connect 10 0 9 1;
#X connect 11 0 12 0;
#X connect 12 0 13 0;
#X connect 13 0 14 0;
#X connect 14 0 15 0;
#X connect 15 0 16 0;
#X connect 15 1 17 0;
#X connect 15 2 18 0;
#X connect 15 3 16 0;
#X connect 15 3 17 0;
#X connect 15 4 16 0;
#X connect 15 4 18 0;
#X connect 15 5 17 0;
#X connect 15 5 18 0;
#X connect 15 6 16 0;
#X connect 15 6 17 0;
#X connect 15 6 18 0;
#X connect 16 0 23 0;
#X connect 17 0 23 0;
#X connect 18 0 23 0;
#X connect 19 0 16 1;
#X connect 20 0 17 1;
#X connect 21 0 18 1;
#X connect 23 0 22 0;
#X connect 23 0 22 1;
#X connect 23 0 32 0;
#X connect 23 0 32 1;
#X connect 25 0 31 0;
#X connect 27 0 31 0;
#X connect 30 0 31 0;
#X connect 33 0 32 0;
#X connect 34 0 32 0;
#X connect 35 0 32 0;
