#N canvas -9 0 682 931 12;
#N canvas 0 50 450 250 (subpatch) 0;
#X array \$0-steps 16 float 3;
#A 0 0 2 3 4 5 6 0 1 2 3 4 5 6 0 1 2;
#X coords 0 6 16 0 200 140 1 0 0;
#X restore 400 90 graph;
#X text 380 271 0=k \, 1=s \, 2=h \, 3=ks \, 4=kh \, 5=sh \, 6=ksh
;
#X obj 379 352 array set \$0-steps;
#X msg 379 318 0 2 3 4 5 6 0 1 2 3 4 5 6 0 1 2;
#N canvas 284 173 521 474 counter 0;
#X obj 114 53 inlet;
#X obj 191 54 inlet;
#X obj 114 98 tgl 15 0 empty empty empty 17 7 0 10 #fcfcfc #000000
#000000 0 1;
#X obj 114 118 t f b;
#X obj 114 163 metro 0.25 120 permin;
#X obj 112 229 f;
#X obj 175 230 + 1;
#X obj 113 273 % 16;
#X obj 111 319 outlet;
#X msg 160 190 0, f 5;
#X floatatom 196 98 5 0 0 0 - - - 0;
#X text 237 99 BPM;
#X msg 176 129 tempo \$1 permin;
#X text 206 190 Reset;
#X connect 0 0 2 0;
#X connect 1 0 10 0;
#X connect 2 0 3 0;
#X connect 3 0 4 0;
#X connect 3 1 9 0;
#X connect 4 0 5 0;
#X connect 5 0 6 0;
#X connect 5 0 7 0;
#X connect 6 0 5 1;
#X connect 7 0 8 0;
#X connect 9 0 5 1;
#X connect 10 0 12 0;
#X connect 12 0 4 0;
#X restore 92 126 pd counter;
#X obj 91 77 tgl 15 0 empty empty empty 17 7 0 10 #fcfcfc #000000 #000000
0 1;
#X floatatom 161 81 5 0 0 0 - - - 0;
#X text 203 77 BPM;
#X obj 96 184 hradio 15 1 0 16 empty empty empty 0 -8 0 10 #00ff04
#000000 #000000 0;
#X obj 93 255 array get \$0-steps;
#X msg 157 212 1;
#X floatatom 87 298 5 0 0 0 - - - 0;
#X obj 89 326 + 0.5;
#X obj 92 368 int;
#X floatatom 88 412 5 0 0 0 - - - 0;
#X obj 100 462 select 0 1 2 3 4 5 6;
#N canvas 191 146 450 526 kick 1;
#X obj 77 30 inlet;
#X obj 175 32 inlet;
#X obj 79 86 bng 15 250 50 0 empty empty empty 17 7 0 10 #fcfcfc #000000
#000000;
#X obj 151 102 f;
#X msg 92 149 150 \, 50 70 0;
#X obj 93 185 vline~;
#X obj 93 227 osc~;
#X obj 98 260 *~;
#X obj 97 294 outlet~;
#X msg 171 180 \$1 1 0 \, 0 100 1;
#X obj 172 223 vline~;
#X text 323 188 Kick;
#X connect 0 0 2 0;
#X connect 1 0 3 1;
#X connect 2 0 3 0;
#X connect 2 0 4 0;
#X connect 3 0 9 0;
#X connect 4 0 5 0;
#X connect 5 0 6 0;
#X connect 6 0 7 0;
#X connect 7 0 8 0;
#X connect 9 0 10 0;
#X connect 10 0 7 1;
#X restore 91 535 pd kick;
#X connect 3 0 2 0;
#X connect 4 0 8 0;
#X connect 5 0 4 0;
#X connect 6 0 4 1;
#X connect 8 0 9 0;
#X connect 9 0 11 0;
#X connect 10 0 9 1;
#X connect 11 0 12 0;
#X connect 12 0 13 0;
#X connect 13 0 14 0;
#X connect 14 0 15 0;
